<svg width="80" height="70" xmlns="http://www.w3.org/2000/svg" viewBox="0 0 425.336 425.336"><path d="M182.79 221.346h-45.872V15h28.342c3.613 22.915 23.495 40.496 47.409 40.496S256.465 37.915 260.079 15h28.339v114.851a7.5 7.5 0 0015 0v-20.217l16.141 8.07a7.498 7.498 0 009.482-2.384l35.999-50.997a7.501 7.501 0 00-1.326-10.087L300.747 1.765A7.467 7.467 0 00295.918 0h-166.5a7.465 7.465 0 00-4.834 1.77l-62.96 52.466a7.5 7.5 0 00-1.326 10.087l35.999 50.997a7.501 7.501 0 009.482 2.384l16.14-8.07v119.212a7.5 7.5 0 007.5 7.5h53.372a7.5 7.5 0 10-.001-15zm137.712-119.941l-17.084-8.542V23.517l45.374 37.811-28.29 40.077zM212.669 40.496c-15.615 0-28.722-10.905-32.129-25.496h64.258c-3.407 14.592-16.514 25.496-32.129 25.496zm-107.835 60.909l-28.29-40.077 45.374-37.811v69.346l-17.084 8.542z"/><path d="M357.692 146.063H206.896a7.5 7.5 0 00-7.5 7.5v264.274a7.5 7.5 0 007.5 7.5h57.751a7.499 7.499 0 007.488-7.084l10.158-182.747 10.158 182.747a7.5 7.5 0 007.488 7.084h57.751a7.5 7.5 0 007.5-7.5V153.563a7.497 7.497 0 00-7.498-7.5zm-7.5 31.785h-23.65v-16.785h23.65v16.785zm-97.146 0v-16.785h58.496v16.785h-58.496zm-15-16.785v16.785h-23.65v-16.785h23.65zm68.99 249.273L296.841 226.94a7.5 7.5 0 00-7.488-7.084h-14.117a7.499 7.499 0 00-7.488 7.084l-10.194 183.396h-43.157V192.848h135.796v217.488h-43.157z"/></svg>